<svg width="641" height="175" viewBox="0 0 641 175" fill="none" xmlns="http://www.w3.org/2000/svg">
<path d="M407.193 144.296C412.519 148.502 417.005 149.904 417.005 156.354C417.005 163.365 412.519 174.302 400.465 174.302C395.699 174.302 390.653 173.18 380 173.18C367.104 173.461 356.451 174.302 352.526 174.302C345.237 174.302 341.312 171.778 341.312 162.804C341.312 155.233 344.116 150.465 353.367 146.259C359.815 143.174 364.581 142.333 371.589 133.079C379.439 123.264 393.456 98.3053 393.456 82.0403C393.456 70.2623 386.167 61.0081 371.309 61.0081C352.806 61.0081 342.994 75.5904 342.994 84.5642C342.994 88.2098 344.676 89.8924 346.639 89.8924C350.564 89.8924 353.928 83.162 361.777 83.162C369.066 83.162 374.673 88.4902 374.673 97.7444C374.673 110.364 364.861 121.861 349.442 121.861C335.425 121.861 319.446 112.888 319.446 90.4532C319.446 65.2145 338.229 37.7324 378.878 37.7324C387.849 37.7324 413.641 38.8541 433.826 38.8541C445.039 38.8541 458.215 37.4519 466.065 37.4519C471.672 37.4519 475.877 38.5737 475.877 45.0235C475.877 53.7169 474.195 65.2145 472.513 89.0511C471.952 96.6227 469.709 100.268 463.542 100.268C454.01 100.268 454.01 93.8184 452.889 83.162C451.207 69.421 452.608 62.4102 440.834 62.4102C433.545 62.4102 429.06 66.3362 424.855 72.5057C419.808 80.0773 416.444 88.4902 416.444 93.5379C416.444 96.6227 417.005 98.3053 419.248 98.3053C427.097 98.3053 428.499 86.2468 437.75 86.2468C441.395 86.2468 443.357 89.0511 443.638 93.5379C443.918 99.1466 443.357 105.036 440.273 112.888C436.349 122.142 429.62 128.592 423.733 127.75C419.248 127.19 418.687 126.629 417.566 120.179C416.725 115.411 418.126 112.888 413.921 112.888C410.277 112.888 406.632 117.094 403.829 122.983C399.343 132.518 399.904 138.407 407.193 144.296Z" fill="#EDE8E1"/>
<path d="M513.443 150.746C513.443 156.354 507.276 161.683 500.828 166.17C493.819 170.937 486.81 174.302 479.522 174.302C471.392 174.302 464.663 169.535 464.663 159.72C464.663 151.587 469.71 141.772 475.597 131.677C485.128 115.692 489.614 107.84 489.614 102.792C489.614 99.7076 485.128 99.7076 482.886 99.1468C479.241 98.3055 477.839 96.3425 477.839 93.8186C477.839 84.0036 502.79 72.7864 515.125 72.7864C522.694 72.7864 526.619 75.5907 526.619 82.0405C526.619 87.3687 520.452 95.2208 510.92 110.925C504.752 121.02 497.744 133.359 497.744 140.37C498.024 150.746 513.443 141.772 513.443 150.746ZM504.472 54.8388C504.472 44.7434 517.648 36.8913 529.142 36.8913C537.272 36.8913 541.758 40.5369 541.758 46.1455C541.758 55.6801 528.301 64.6539 516.807 64.6539C509.518 64.6539 504.472 60.7279 504.472 54.8388Z" fill="#EDE8E1"/>
<path d="M611.003 141.211C617.171 143.174 625.02 144.016 625.02 150.466C625.02 160.561 603.153 174.302 590.818 174.302C581.567 174.302 581.006 170.096 581.006 161.683C581.006 148.502 582.128 137.846 577.362 137.846C572.035 137.846 561.102 154.111 553.533 160.841C545.683 167.852 536.993 174.582 528.302 174.582C521.574 174.582 515.687 170.937 515.687 161.683C515.687 146.82 529.143 126.349 541.478 126.349C548.206 126.349 547.085 136.444 552.692 136.444C557.738 136.444 568.671 123.264 568.671 110.925C568.671 106.999 567.55 101.951 559.7 101.951C554.374 101.951 550.449 105.316 545.683 105.316C541.758 105.316 538.955 103.914 538.955 99.4272C538.955 87.3687 559.981 71.3842 575.68 71.3842C588.576 71.3842 590.538 79.7971 590.538 87.0883C590.538 98.0251 587.454 106.438 587.454 113.449C587.454 116.253 588.295 117.094 590.538 117.094C596.986 117.094 607.078 105.597 607.078 99.1468C607.078 93.8186 599.789 94.9403 599.789 88.4904C599.789 79.7971 614.648 67.7386 627.824 67.7386C635.393 67.7386 641 72.5059 641 80.6384C641 94.3795 631.748 106.718 619.413 115.973C611.844 121.862 601.191 126.349 601.191 132.518C600.911 136.164 603.434 138.687 611.003 141.211Z" fill="#EDE8E1"/>
<path d="M82.1405 174.302C76.814 174.302 71.7678 173.18 57.19 173.18C42.6121 173.18 35.0429 174.302 31.1181 174.302C26.6326 174.302 21.5864 172.619 21.5864 166.73C21.5864 154.391 28.595 148.783 38.9677 143.735C52.4241 137.285 58.3113 128.872 63.3575 118.216C72.3285 99.7076 78.2157 87.0883 78.2157 75.8711C78.2157 64.6539 68.9644 58.7648 56.3489 58.7648C37.2856 58.7648 26.3522 76.4319 26.3522 84.5644C26.3522 87.6491 27.4736 89.3317 29.9967 89.3317C33.6412 89.3317 36.1642 85.4057 42.6121 85.4057C50.7421 85.4057 58.3113 90.7339 58.3113 101.39C58.3113 114.851 45.6959 123.264 32.2394 123.264C18.2223 123.264 0 115.131 0 90.4534C0 62.9713 29.436 33.2457 74.8516 33.2457C107.932 33.2457 127.836 46.7063 153.628 49.5107C161.758 26.235 174.093 0.71582 206.613 0.71582C227.358 0.71582 235.488 12.2135 235.768 24.2719C235.768 48.9498 205.491 68.5799 169.607 73.9081L164.842 89.0513C164.281 90.4534 164.001 92.4165 165.683 92.4165C168.486 92.4165 172.411 88.4904 177.457 84.0035C184.185 78.395 190.633 74.1885 199.885 74.1885C213.061 74.1885 218.668 83.1623 218.668 91.8556C218.668 110.644 194.838 128.592 194.838 140.931C194.838 150.465 209.416 141.492 209.416 150.465C209.416 156.074 203.249 161.402 196.801 165.889C189.792 170.656 182.784 174.022 175.495 174.022C167.365 174.022 160.637 169.254 160.637 159.439C160.637 149.624 167.365 141.211 174.093 131.116C181.943 119.618 185.307 112.607 185.307 107.56C185.307 103.914 183.344 101.671 179.7 101.671C172.972 101.671 164.561 108.401 157.553 117.655C145.218 133.92 140.732 152.709 138.489 162.804C137.088 169.815 135.966 174.022 124.753 174.022C113.819 174.022 107.091 170.376 107.091 164.487C107.091 158.318 114.38 150.185 120.547 139.809C130.079 124.666 140.171 92.9773 145.778 74.7494C129.799 73.9081 121.669 69.982 115.501 69.982C109.894 69.982 107.932 71.6646 104.007 80.0775L94.7559 99.9881C81.5798 128.031 79.6174 135.883 89.1491 143.735C94.1952 147.942 98.9611 149.344 98.9611 155.794C98.9611 163.365 94.4756 174.302 82.1405 174.302ZM178.018 49.5107C204.09 46.1455 209.977 33.8066 209.977 27.0762C209.977 23.1502 207.734 20.6264 203.809 20.6264C192.035 20.6264 184.466 32.9653 178.018 49.5107Z" fill="#EDE8E1"/>
<path d="M243.898 174.302C225.956 174.302 213.901 161.683 213.901 142.894C213.901 110.925 247.543 72.506 279.502 72.506C295.762 72.506 303.331 82.0407 303.331 92.4166C303.331 110.925 282.585 130.555 260.158 130.555C253.99 130.555 248.664 129.714 245.58 129.714C240.814 129.714 239.413 133.079 239.413 137.005C239.413 142.894 243.057 148.222 251.187 148.222C264.643 148.222 273.054 133.359 283.426 133.359C288.473 133.359 290.715 137.005 290.715 140.931C290.996 153.27 267.167 174.302 243.898 174.302ZM276.979 98.3056C276.979 95.2209 275.857 92.9774 271.932 92.9774C263.802 92.9774 249.505 108.682 249.505 114.29C249.505 115.973 250.346 116.814 252.869 116.814C262.12 117.094 276.979 106.999 276.979 98.3056Z" fill="#EDE8E1"/>
</svg>
